<svg width="43" height="43" viewBox="0 0 43 43" fill="none" xmlns="http://www.w3.org/2000/svg">
<rect x="0.343872" y="0.343872" width="41.6875" height="41.6875" rx="20.8437" fill="#D9D9D9"/>
<rect x="0.343872" y="0.343872" width="41.6875" height="41.6875" rx="20.8437" fill="url(#paint0_linear_579_207)"/>
<g clip-path="url(#clip0_579_207)">
<path d="M26.1412 24.8958C26.1412 25.6748 25.5097 26.3062 24.7307 26.3062H13.4468C13.0727 26.3062 12.714 26.1577 12.4495 25.8931C12.185 25.6286 12.0363 25.2699 12.0363 24.8958V13.612C12.0363 13.2379 12.185 12.8791 12.4495 12.6146C12.714 12.3501 13.0727 12.2015 13.4468 12.2015H24.7307C25.1047 12.2015 25.4636 12.3501 25.728 12.6146C25.9925 12.8791 26.1412 13.2379 26.1412 13.612V24.8958Z" fill="#BDDCFF" fill-opacity="0.3"/>
<path d="M19.0889 18.9014C20.2574 18.9014 21.2046 17.9541 21.2046 16.7856C21.2046 15.6172 20.2574 14.6699 19.0889 14.6699C17.9204 14.6699 16.9732 15.6172 16.9732 16.7856C16.9732 17.9541 17.9204 18.9014 19.0889 18.9014Z" fill="white"/>
<path d="M16.8801 21.5365C17.5658 21.1937 18.322 21.0158 19.0886 21.0169C19.8552 21.0158 20.6114 21.1937 21.2971 21.5365C21.9828 21.8794 22.5789 22.3776 23.0379 22.9915H15.1393C15.5983 22.3776 16.1944 21.8794 16.8801 21.5365Z" fill="white"/>
<path d="M15.1297 23.002C16.0299 21.797 17.4675 21.0168 19.0873 21.0168C20.2403 21.0168 21.3011 21.4122 22.1414 22.0747" stroke="white" stroke-width="1.41048" stroke-linecap="round" stroke-linejoin="round"/>
<path d="M18.3835 26.3062H13.4468C13.0727 26.3062 12.714 26.1577 12.4495 25.8931C12.185 25.6286 12.0363 25.2699 12.0363 24.8958V13.612C12.0363 13.2379 12.185 12.8791 12.4495 12.6146C12.714 12.3501 13.0727 12.2015 13.4468 12.2015H24.7307C25.1047 12.2015 25.4636 12.3501 25.728 12.6146C25.9925 12.8791 26.1412 13.2379 26.1412 13.612V17.8434" stroke="white" stroke-width="1.41048" stroke-linecap="round" stroke-linejoin="round"/>
<path d="M19.0889 18.9014C20.2574 18.9014 21.2046 17.9541 21.2046 16.7856C21.2046 15.6172 20.2574 14.6699 19.0889 14.6699C17.9204 14.6699 16.9732 15.6172 16.9732 16.7856C16.9732 17.9541 17.9204 18.9014 19.0889 18.9014Z" stroke="white" stroke-width="1.41048" stroke-linecap="round" stroke-linejoin="round"/>
<path d="M21.7526 26.2133C21.2577 26.1271 21.2577 25.4166 21.7526 25.3305C23.5459 25.0185 24.9721 23.6526 25.3613 21.8746L25.3912 21.7383C25.4982 21.2491 26.1949 21.2461 26.3062 21.7343L26.3424 21.8931C26.7461 23.6628 28.1727 25.0171 29.961 25.3282C30.4585 25.4148 30.4585 26.1289 29.961 26.2156C28.1727 26.5266 26.7461 27.8809 26.3424 29.6506L26.3062 29.8095C26.1949 30.2976 25.4982 30.2947 25.3912 29.8055L25.3613 29.6691C24.9721 27.8911 23.5459 26.5253 21.7526 26.2133Z" fill="#BDDCFF" fill-opacity="0.3"/>
<path d="M21.7526 26.2133C21.2577 26.1271 21.2577 25.4166 21.7526 25.3305C23.5459 25.0185 24.9721 23.6526 25.3613 21.8746L25.3912 21.7383C25.4982 21.2491 26.1949 21.2461 26.3062 21.7343L26.3424 21.8931C26.7461 23.6628 28.1727 25.0171 29.961 25.3282C30.4585 25.4148 30.4585 26.1289 29.961 26.2156C28.1727 26.5266 26.7461 27.8809 26.3424 29.6506L26.3062 29.8095C26.1949 30.2976 25.4982 30.2947 25.3912 29.8055L25.3613 29.6691C24.9721 27.8911 23.5459 26.5253 21.7526 26.2133Z" stroke="#FEC900" stroke-width="1.41048" stroke-linecap="round" stroke-linejoin="round"/>
</g>
<defs>
<linearGradient id="paint0_linear_579_207" x1="21.1876" y1="-4.83256" x2="21.1876" y2="48.036" gradientUnits="userSpaceOnUse">
<stop stop-color="#0067DD"/>
<stop offset="1" stop-color="#00336F"/>
</linearGradient>
<clipPath id="clip0_579_207">
<rect width="19.7467" height="19.7467" fill="white" transform="translate(11.3144 11.3143)"/>
</clipPath>
</defs>
</svg>
