<svg width="43" height="43" viewBox="0 0 43 43" fill="none" xmlns="http://www.w3.org/2000/svg">
<rect x="0.343872" y="0.343872" width="41.69" height="41.69" rx="20.845" fill="#D9D9D9"/>
<rect x="0.343872" y="0.343872" width="41.69" height="41.69" rx="20.845" fill="url(#paint0_linear_579_418)"/>
<g clip-path="url(#clip0_579_418)">
<path d="M15.5469 21.1891V17.4793C15.5579 16.7501 15.7127 16.0302 16.0024 15.3609C16.2921 14.6916 16.711 14.0861 17.2352 13.579C17.7593 13.0719 18.3784 12.6732 19.0569 12.4057C19.7353 12.1383 20.46 12.0073 21.1891 12.0204C21.9183 12.0073 22.6429 12.1383 23.3214 12.4057C23.9999 12.6732 24.6189 13.0719 25.1431 13.579C25.6672 14.0861 26.0862 14.6916 26.3759 15.3609C26.6655 16.0302 26.8204 16.7501 26.8314 17.4793V21.1891" stroke="white" stroke-width="1.41056" stroke-linecap="round" stroke-linejoin="round"/>
<path d="M13.4311 19.0731H14.8416C15.0287 19.0731 15.2081 19.1474 15.3403 19.2797C15.4726 19.412 15.5469 19.5913 15.5469 19.7784V24.0101C15.5469 24.1971 15.4726 24.3765 15.3403 24.5088C15.2081 24.6411 15.0287 24.7154 14.8416 24.7154H13.4311C13.057 24.7154 12.6982 24.5668 12.4337 24.3022C12.1691 24.0377 12.0205 23.6789 12.0205 23.3048V20.4837C12.0205 20.1096 12.1691 19.7508 12.4337 19.4863C12.6982 19.2217 13.057 19.0731 13.4311 19.0731Z" fill="#BDDCFF" fill-opacity="0.3"/>
<path d="M28.9473 24.7154H27.5367C27.3497 24.7154 27.1702 24.6411 27.0379 24.5088C26.9058 24.3765 26.8314 24.1971 26.8314 24.0101V19.7784C26.8314 19.5913 26.9058 19.412 27.0379 19.2797C27.1702 19.1474 27.3497 19.0731 27.5367 19.0731H28.9473C29.3213 19.0731 29.6802 19.2217 29.9447 19.4863C30.2092 19.7508 30.3578 20.1096 30.3578 20.4837V23.3048C30.3578 23.6789 30.2092 24.0377 29.9447 24.3022C29.6802 24.5668 29.3213 24.7154 28.9473 24.7154Z" fill="#BDDCFF" fill-opacity="0.3"/>
<path d="M24.0103 28.5945C24.7585 28.5945 25.476 28.2973 26.0051 27.7682C26.5342 27.2391 26.8314 26.5215 26.8314 25.7734V22.5996" stroke="white" stroke-width="1.41056" stroke-linecap="round" stroke-linejoin="round"/>
<path d="M24.0104 28.5945C24.0104 29.0621 23.8246 29.5107 23.4939 29.8413C23.1633 30.1719 22.7148 30.3577 22.2472 30.3577H20.1313C19.6637 30.3577 19.2152 30.1719 18.8845 29.8413C18.5539 29.5107 18.3681 29.0621 18.3681 28.5945C18.3681 28.1269 18.5539 27.6783 18.8845 27.3477C19.2152 27.0171 19.6637 26.8313 20.1313 26.8313H22.2472C22.7148 26.8313 23.1633 27.0171 23.4939 27.3477C23.8246 27.6783 24.0104 28.1269 24.0104 28.5945Z" fill="#BDDCFF" fill-opacity="0.3"/>
<path d="M13.4311 19.0731H14.8416C15.0287 19.0731 15.2081 19.1474 15.3403 19.2797C15.4726 19.412 15.5469 19.5913 15.5469 19.7784V24.0101C15.5469 24.1971 15.4726 24.3765 15.3403 24.5088C15.2081 24.6411 15.0287 24.7154 14.8416 24.7154H13.4311C13.057 24.7154 12.6982 24.5668 12.4337 24.3022C12.1691 24.0377 12.0205 23.6789 12.0205 23.3048V20.4837C12.0205 20.1096 12.1691 19.7508 12.4337 19.4863C12.6982 19.2217 13.057 19.0731 13.4311 19.0731Z" stroke="white" stroke-width="1.41056" stroke-linecap="round" stroke-linejoin="round"/>
<path d="M28.9473 24.7154H27.5367C27.3497 24.7154 27.1702 24.6411 27.0379 24.5088C26.9058 24.3765 26.8314 24.1971 26.8314 24.0101V19.7784C26.8314 19.5913 26.9058 19.412 27.0379 19.2797C27.1702 19.1474 27.3497 19.0731 27.5367 19.0731H28.9473C29.3213 19.0731 29.6802 19.2217 29.9447 19.4863C30.2092 19.7508 30.3578 20.1096 30.3578 20.4837V23.3048C30.3578 23.6789 30.2092 24.0377 29.9447 24.3022C29.6802 24.5668 29.3213 24.7154 28.9473 24.7154Z" stroke="white" stroke-width="1.41056" stroke-linecap="round" stroke-linejoin="round"/>
<path d="M24.0104 28.5945C24.0104 29.0621 23.8246 29.5107 23.4939 29.8413C23.1633 30.1719 22.7148 30.3577 22.2472 30.3577H20.1313C19.6637 30.3577 19.2152 30.1719 18.8845 29.8413C18.5539 29.5107 18.3681 29.0621 18.3681 28.5945C18.3681 28.1269 18.5539 27.6783 18.8845 27.3477C19.2152 27.0171 19.6637 26.8313 20.1313 26.8313H22.2472C22.7148 26.8313 23.1633 27.0171 23.4939 27.3477C23.8246 27.6783 24.0104 28.1269 24.0104 28.5945Z" stroke="white" stroke-width="1.41056" stroke-linecap="round" stroke-linejoin="round"/>
</g>
<defs>
<linearGradient id="paint0_linear_579_418" x1="21.1889" y1="-4.83287" x2="21.1889" y2="48.0389" gradientUnits="userSpaceOnUse">
<stop stop-color="#0067DD"/>
<stop offset="1" stop-color="#00336F"/>
</linearGradient>
<clipPath id="clip0_579_418">
<rect width="19.7479" height="19.7479" fill="white" transform="translate(11.3149 11.3149)"/>
</clipPath>
</defs>
</svg>
