<svg width="43" height="43" viewBox="0 0 43 43" fill="none" xmlns="http://www.w3.org/2000/svg">
<rect x="0.343872" y="0.343872" width="41.69" height="41.69" rx="20.845" fill="#D9D9D9"/>
<rect x="0.343872" y="0.343872" width="41.69" height="41.69" rx="20.845" fill="url(#paint0_linear_579_806)"/>
<g clip-path="url(#clip0_579_806)">
<path d="M27.0741 21.8943H15.5357L14.1251 14.8415H28.2307C28.334 14.8419 28.4357 14.8649 28.5291 14.9089C28.6223 14.9529 28.7048 15.0168 28.7707 15.0962C28.8367 15.1755 28.8844 15.2684 28.9105 15.3682C28.9366 15.468 28.9405 15.5722 28.9219 15.6737L27.7652 21.316C27.7383 21.4791 27.6537 21.6272 27.5268 21.7333C27.4 21.8394 27.2394 21.8965 27.0741 21.8943Z" fill="#BDDCFF" fill-opacity="0.4"/>
<path d="M27.0741 21.8943H15.5357L14.1251 14.8415H28.2307C28.334 14.8419 28.4357 14.8649 28.5291 14.9089C28.6223 14.9529 28.7048 15.0168 28.7707 15.0962C28.8367 15.1755 28.8844 15.2684 28.9105 15.3682C28.9366 15.468 28.9405 15.5722 28.9219 15.6737L27.7652 21.316C27.7383 21.4791 27.6537 21.6272 27.5268 21.7333C27.4 21.8394 27.2394 21.8965 27.0741 21.8943Z" stroke="white" stroke-width="1.41056" stroke-linecap="round" stroke-linejoin="round"/>
<path d="M14.125 14.8415L13.5326 12.5846C13.5001 12.4252 13.4135 12.2821 13.2876 12.1793C13.1616 12.0764 13.004 12.0203 12.8414 12.0203H10.5986" stroke="white" stroke-width="1.41056" stroke-linecap="round" stroke-linejoin="round"/>
<path d="M15.5356 21.8943L16.1281 24.8565C16.1606 25.0158 16.2472 25.159 16.3731 25.2618C16.4991 25.3646 16.6567 25.4207 16.8193 25.4207H25.4095" stroke="white" stroke-width="1.41056" stroke-linecap="round" stroke-linejoin="round"/>
<path d="M24.7043 30.3577C24.3148 30.3577 23.999 30.0419 23.999 29.6524C23.999 29.263 24.3148 28.9471 24.7043 28.9471C25.0939 28.9471 25.4096 29.263 25.4096 29.6524C25.4096 30.0419 25.0939 30.3577 24.7043 30.3577Z" stroke="white" stroke-width="1.41056" stroke-linecap="round" stroke-linejoin="round"/>
<path d="M17.6515 30.3577C17.262 30.3577 16.9462 30.0419 16.9462 29.6524C16.9462 29.263 17.262 28.9471 17.6515 28.9471C18.041 28.9471 18.3568 29.263 18.3568 29.6524C18.3568 30.0419 18.041 30.3577 17.6515 30.3577Z" stroke="white" stroke-width="1.41056" stroke-linecap="round" stroke-linejoin="round"/>
</g>
<defs>
<linearGradient id="paint0_linear_579_806" x1="21.1889" y1="-4.83287" x2="21.1889" y2="48.0389" gradientUnits="userSpaceOnUse">
<stop stop-color="#0067DD"/>
<stop offset="1" stop-color="#00336F"/>
</linearGradient>
<clipPath id="clip0_579_806">
<rect width="19.7479" height="19.7479" fill="white" transform="translate(9.88965 11.3149)"/>
</clipPath>
</defs>
</svg>
